:SAMPLES-PER-SECOND 30
:FULLY-SPECIFIED
:DEGREES
91
root  -40.8333 36.1198 -32.7112 40.7972 -86.6036 1.79744
RightUpLeg  -82.4413 -13.9033 21.3983
RightLeg  48.2733 -0.119254 -0.49275
RightFoot  -4.54689 0.593719 -10.4795
RightToes  0.000482159 0.542163 -0.142577
Spine  73.6149 -4.17679 5.89063
Spine1  1.3427 0.925402 -4.91925
HEad  -39.5861 -2.00808 -1.56625
LeftShoulder1  4.85262 -23.507 -10.6259
LeftArm  -83.4164 -56.2063 35.2381
LeftForeArm  -8.22436 -12.6347 1.19485
LeftHand  -0.25398 0.0180481 5.50724
RightShoulder  1.49882 14.0849 0.129854
RightArm  -77.208 56.3993 -15.4824
RightForeArm  -22.3738 16.184 3.19962
RightHand  -1.29425 12.2611 -9.01784
LeftUpLeg  -82.5057 16.2415 -25.2654
LeftLeg  42.6177 2.88099 3.23617
LeftFoot  -6.2613 -0.364416 9.04954
LeftToes  1.06248e-005 4.65854e-005 -8.185e-006
92
root  -40.9359 36.1124 -32.5676 46.9747 -86.614 -4.20193
RightUpLeg  -82.4098 -13.982 21.846
RightLeg  48.2075 -0.0977333 -0.466255
RightFoot  -4.92339 0.56232 -10.5796
RightToes  0.000482159 0.542163 -0.142577
Spine  73.6968 -4.20309 5.57341
Spine1  2.12284 0.658024 -4.93757
HEad  -39.915 -1.21081 -1.47031
LeftShoulder1  4.67639 -22.4268 -10.7194
LeftArm  -86.8511 -56.7473 36.6258
LeftForeArm  -10.1798 -12.968 1.45587
LeftHand  -0.25398 0.0180481 5.50724
RightShoulder  1.54732 14.6252 0.141688
RightArm  -78.3495 55.5745 -16.5221
RightForeArm  -23.6954 17.8389 3.98069
RightHand  -1.05479 11.6505 -7.67845
LeftUpLeg  -82.8009 16.3616 -25.35
LeftLeg  42.9548 2.86544 3.25626
LeftFoot  -6.43913 -0.358658 9.26943
LeftToes  1.06248e-005 4.65854e-005 -8.185e-006
93
root  -40.9892 36.1074 -32.4147 53.146 -86.7913 -10.1389
RightUpLeg  -82.3912 -13.8748 22.0052
RightLeg  47.9903 -0.0258529 -0.377608
RightFoot  -5.08136 0.536522 -10.3989
RightToes  0.000482159 0.542163 -0.142577
Spine  73.5216 -4.23752 5.24704
Spine1  2.81624 0.453583 -5.19374
HEad  -40.1249 -0.591594 -1.49059
LeftShoulder1  4.52179 -21.1245 -11.0965
LeftArm  -91.1037 -57.6241 37.8225
LeftForeArm  -10.3335 -13.784 1.48888
LeftHand  -0.25398 0.0180481 5.50724
RightShoulder  1.58821 14.9517 0.221525
RightArm  -80.0701 55.1352 -17.4481
RightForeArm  -23.4672 18.9332 4.39262
RightHand  -0.659949 10.5402 -5.32084
LeftUpLeg  -83.1873 16.6493 -25.8778
LeftLeg  43.1259 2.73508 3.14432
LeftFoot  -6.7819 -0.354234 9.89938
LeftToes  1.06248e-005 4.65854e-005 -8.185e-006
94
root  -40.9974 36.1129 -32.2728 56.1786 -87.0002 -13.0155
RightUpLeg  -82.3515 -13.8286 21.8904
RightLeg  47.6826 0.0110323 -0.33079
RightFoot  -5.16215 0.513107 -10.1145
RightToes  0.000482159 0.542163 -0.142577
Spine  73.4321 -4.34712 4.97269
Spine1  3.056 0.223839 -5.52514
HEad  -40.1723 -0.236503 -1.53362
LeftShoulder1  4.3327 -19.701 -11.4551
LeftArm  -94.5359 -58.5541 38.5165
LeftForeArm  -8.69811 -14.8661 1.05124
LeftHand  -0.25398 0.0180481 5.50724
RightShoulder  1.52259 14.538 0.0326023
RightArm  -81.5877 55.3443 -17.0416
RightForeArm  -21.8523 19.7943 4.65252
RightHand  -0.307811 10.2103 -2.81983
LeftUpLeg  -83.4483 16.9358 -26.6139
LeftLeg  43.1405 2.4841 2.89506
LeftFoot  -7.12765 -0.328046 10.0569
LeftToes  1.06248e-005 4.65854e-005 -8.185e-006
95
root  -40.9647 36.1252 -32.1454 56.8751 -87.1241 -13.8423
RightUpLeg  -82.0738 -13.9075 21.6659
RightLeg  47.3221 -0.0889488 -0.444124
RightFoot  -5.34958 0.489339 -10.0041
RightToes  0.000482159 0.542163 -0.142577
Spine  73.5356 -4.47669 4.80434
Spine1  3.0073 -0.0138982 -5.70524
HEad  -40.3476 0.0508252 -1.48374
LeftShoulder1  4.14186 -18.5225 -11.6146
LeftArm  -95.3167 -59.3418 39.0536
LeftForeArm  -8.20092 -15.0778 0.730598
LeftHand  -0.25398 0.0180481 5.50724
RightShoulder  1.43637 14.011 -0.235207
RightArm  -82.7513 55.6022 -15.8158
RightForeArm  -19.8757 20.5794 4.87662
RightHand  0.0474326 10.1973 -0.164589
LeftUpLeg  -83.5235 17.284 -27.4058
LeftLeg  43.1307 2.11326 2.52281
LeftFoot  -7.17565 -0.323729 10.0631
LeftToes  1.06248e-005 4.65854e-005 -8.185e-006
96
root  -40.8952 36.1293 -32.0092 59.6203 -87.1087 -16.9833
RightUpLeg  -81.5629 -13.9806 21.4684
RightLeg  46.9978 -0.2497 -0.625412
RightFoot  -5.53397 0.465154 -9.87169
RightToes  0.000482159 0.542163 -0.142577
Spine  73.6264 -4.61642 4.7985
Spine1  3.04001 -0.185439 -5.75029
HEad  -40.7921 0.474723 -1.48978
LeftShoulder1  4.02781 -17.7498 -11.7847
LeftArm  -94.5975 -59.9326 39.4551
LeftForeArm  -9.31616 -14.6795 0.667209
LeftHand  -0.25398 0.0180481 5.50724
RightShoulder  1.41279 14.068 -0.418628
RightArm  -83.8545 55.3648 -15.1356
RightForeArm  -17.7942 20.9815 4.93292
RightHand  0.423652 9.42281 2.80967
LeftUpLeg  -83.5109 17.7104 -28.0576
LeftLeg  43.2193 1.76097 2.17577
LeftFoot  -7.11662 -0.346383 10.5259
LeftToes  1.06248e-005 4.65854e-005 -8.185e-006
